<svg xmlns="http://www.w3.org/2000/svg" xmlns:xlink="http://www.w3.org/1999/xlink" width="2163.632" height="357.704" xml:space="preserve">
  <defs>
      <linearGradient id="a">
          <stop style="stop-color:#000;stop-opacity:1" offset="0"/>
          <stop style="stop-color:#000;stop-opacity:0" offset="1"/>
      </linearGradient>
      <linearGradient xlink:href="#a" id="k" x1="941.198" y1="265.666" x2="996.404" y2="265.666" gradientUnits="userSpaceOnUse"/>
      <linearGradient xlink:href="#a" id="j" x1="1297.132" y1="255.06" x2="1353.587" y2="255.06" gradientUnits="userSpaceOnUse"/>
      <linearGradient xlink:href="#a" id="i" x1="1243.176" y1="265.743" x2="1293.497" y2="265.743" gradientUnits="userSpaceOnUse"/>
      <linearGradient xlink:href="#a" id="h" x1="1203.356" y1="265.509" x2="1239.538" y2="265.509" gradientUnits="userSpaceOnUse"/>
      <linearGradient xlink:href="#a" id="g" x1="1150.332" y1="265.431" x2="1199.717" y2="265.431" gradientUnits="userSpaceOnUse"/>
      <linearGradient xlink:href="#a" id="e" x1="1019.903" y1="265.431" x2="1069.286" y2="265.431" gradientUnits="userSpaceOnUse"/>
      <linearGradient xlink:href="#a" id="d" x1="1000.045" y1="255.035" x2="1016.264" y2="255.035" gradientUnits="userSpaceOnUse"/>
      <linearGradient xlink:href="#a" id="c" x1="941.198" y1="265.666" x2="996.404" y2="265.666" gradientUnits="userSpaceOnUse"/>
  </defs>
  <g transform="matrix(4.58208 0 0 4.726 -4041.109 -1026.451)">
      <linearGradient id="b" gradientUnits="userSpaceOnUse" x1="881.938" y1="255.113" x2="938.6" y2="255.113">
          <stop offset=".011" style="stop-color:#3eb0ca"/>
          <stop offset=".5" style="stop-color:#0099b9"/>
          <stop offset=".994" style="stop-color:#007c84"/>
      </linearGradient>
      <path d="M898.156 292.385h-16.219V244.82c0-9.219 3.553-16.531 10.656-21.938 4.748-3.36 10.658-5.042 17.727-5.042 10.396 0 18.264 3.761 23.602 11.28 3.119 4.679 4.678 10.172 4.678 16.479 0 10.259-4.141 18.126-12.424 23.601-4.678 2.565-9.912 3.847-15.699 3.847h-.52c-4.436 0-8.369-1.073-11.801-3.223v22.561zM923.16 245.6c0-5.96-2.166-10.326-6.498-13.1-1.941-1.04-3.969-1.56-6.082-1.56h-1.039c-5.061 0-8.82 2.669-11.279 8.006-.695 2.184-1.041 4.229-1.041 6.134v.78c0 6.064 2.461 10.414 7.383 13.048 2.078.797 3.898 1.195 5.457 1.195 6.168 0 10.328-3.205 12.477-9.617.415-2.183.622-3.811.622-4.886z" style="fill:url(#b);stroke:none"/>
      <path d="M968.49 238.998h.623c12.096 0 20.533 5.182 25.316 15.543 1.316 3.639 1.975 7.348 1.975 11.125 0 9.703-3.707 17.137-11.123 22.301-4.609 2.911-10.172 4.366-16.688 4.366-12.061 0-20.48-5.095-25.264-15.283-1.422-3.812-2.131-7.606-2.131-11.384 0-10.189 4.123-17.865 12.371-23.029 4.402-2.426 9.376-3.639 14.921-3.639zm-12.267 26.772c0 6.065 2.424 10.362 7.277 12.892 1.664.694 3.291 1.04 4.887 1.04h.832c3.533 0 6.496-1.334 8.889-4.003 2.184-2.668 3.275-5.978 3.275-9.929v-.208c0-6.064-2.34-10.327-7.02-12.788-1.836-.831-3.674-1.247-5.51-1.247-5.961 0-9.963 3.085-12.008 9.253a20.97 20.97 0 0 0-.622 4.99z" style="opacity:1;fill:#f2f2f2;stroke:url(#c);stroke-width:1.08795249;stroke-miterlimit:4;stroke-dasharray:none;stroke-dashoffset:0"/>
      <path d="M1000.045 217.736h16.219v74.493l-16.012.104-.207-51.88v-22.717z" style="opacity:1;fill:#f2f2f2;stroke:url(#d);stroke-width:1.08795249;stroke-miterlimit:4;stroke-dasharray:none;stroke-dashoffset:0"/>
      <path d="M1042.41 292.333c-10.777 0-17.744-3.517-20.896-10.553-1.074-3.084-1.611-6.012-1.611-8.785v-16.011c0-7.347 4.314-12.874 12.943-16.583 3.777-1.247 7.502-1.871 11.176-1.871 12.961 0 21.088 4.072 24.381 12.216.59 1.906.883 3.709.883 5.406v1.508c0 6.724-3.223 11.246-9.668 13.567-3.639 1.075-7.832 1.611-12.58 1.611h-12.943c-.174 0-.26.087-.26.261 0 5.129 3.604 7.693 10.813 7.693h1.508c10.777-.173 18.09-1.196 21.936-3.067v11.853c-9.393 1.837-17.953 2.755-25.682 2.755zm12.945-35.089c0-3.327-2.895-5.336-8.682-6.03h-2.652c-5.025 0-8.334 1.646-9.928 4.938a8.331 8.331 0 0 0-.26 2.132v4.626h12.215c4.609 0 7.504-.952 8.682-2.858.416-.797.625-1.733.625-2.808z" style="opacity:1;fill:#f2f2f2;stroke:url(#e);stroke-width:1.08795249;stroke-miterlimit:4;stroke-dasharray:none;stroke-dashoffset:0"/>
      <linearGradient id="f" gradientUnits="userSpaceOnUse" x1="1077.709" y1="254.858" x2="1146.689" y2="254.858">
          <stop offset=".011" style="stop-color:#3eb0ca"/>
          <stop offset=".5" style="stop-color:#0099b9"/>
          <stop offset=".994" style="stop-color:#007c84"/>
      </linearGradient>
      <path d="M1146.689 217.342v75.033l-19.619-.053v-34.959l-15.549 14.87-14.453-14.297-.053 34.438h-19.307v-75.033l33.813 28.907 35.168-28.906z" style="fill:url(#f);stroke:none"/>
      <path d="M1177.26 238.53c10.742 0 17.691 3.518 20.846 10.553 1.074 3.085 1.611 6.013 1.611 8.785v16.011c0 7.348-4.314 12.875-12.943 16.583-3.744 1.247-7.469 1.871-11.178 1.871-12.961 0-21.088-4.071-24.379-12.216-.59-1.906-.885-3.708-.885-5.406v-1.508c0-6.723 3.223-11.245 9.67-13.567 3.639-1.074 7.832-1.611 12.58-1.611h12.943c.174 0 .26-.087.26-.261 0-5.128-3.605-7.693-10.813-7.693h-1.508c-5.926 0-10.83.936-14.711 2.808v-11.853c4.575-1.665 10.743-2.496 18.507-2.496zm-12.996 35.089c0 3.327 2.895 5.337 8.682 6.03h2.65c5.025 0 8.336-1.646 9.93-4.938a8.32 8.32 0 0 0 .26-2.132v-4.626h-12.217c-4.609 0-7.484.953-8.629 2.858-.452.798-.676 1.734-.676 2.808z" style="opacity:1;fill:#f2f2f2;stroke:url(#g);stroke-width:1.08795249;stroke-miterlimit:4;stroke-dasharray:none;stroke-dashoffset:0"/>
      <path d="M1219.627 242.481c3.432-2.149 7.346-3.224 11.748-3.224h.52c2.529 0 5.076.26 7.643.779V254.8c-2.461-1.732-5.131-2.599-8.006-2.599-1.561 0-3.379.382-5.459 1.144-4.887 2.669-7.33 7.018-7.33 13.048v25.731h-15.387c.07-27.412.105-45.121.105-53.127v-.104h16.166v3.588z" style="opacity:1;fill:#f2f2f2;stroke:url(#h);stroke-width:1.08795249;stroke-miterlimit:4;stroke-dasharray:none;stroke-dashoffset:0"/>
      <path d="M1270.414 239.154h.625c9.355 0 16.582 3.206 21.676 9.617-.068 0-3.934 2.737-11.592 8.213h-.104c-2.6-3.569-6.014-5.354-10.24-5.354-5.961 0-9.965 3.085-12.01 9.253a20.928 20.928 0 0 0-.623 4.99c0 6.03 2.408 10.311 7.227 12.841 1.662.658 3.291.987 4.885.987h.885c4.643 0 8.143-2.148 10.5-6.446h.104l11.75 8.474c-4.992 7.069-12.65 10.604-22.977 10.604-12.061 0-20.465-5.076-25.213-15.231-1.422-3.812-2.131-7.606-2.131-11.384 0-10.154 4.123-17.796 12.371-22.925 4.367-2.426 9.322-3.639 14.867-3.639z" style="opacity:1;fill:#f2f2f2;stroke:url(#i);stroke-width:1.08795249;stroke-miterlimit:4;stroke-dasharray:none;stroke-dashoffset:0"/>
      <path d="M1313.404 242.793c3.396-2.148 7.295-3.224 11.695-3.224h.521c4.885 0 9.32.919 13.307 2.756 9.773 4.887 14.66 13.343 14.66 25.368v24.536h-15.439v-22.354c0-.831.033-2.113.104-3.847h-.104c0-3.604-1.213-6.827-3.639-9.669-2.461-2.599-5.545-3.898-9.254-3.898-1.559 0-3.361.398-5.406 1.195-4.92 2.635-7.381 6.966-7.381 12.996v25.68h-15.336c.07-27.343.105-52.156.105-74.44v-.104h16.166v25.005z" style="opacity:1;fill:#f2f2f2;stroke:url(#j);stroke-width:1.08795249;stroke-miterlimit:4;stroke-dasharray:none;stroke-dashoffset:0"/>
      <path style="opacity:1;fill:#f2f2f2;stroke:url(#k);stroke-width:1.08795249;stroke-miterlimit:4;stroke-dasharray:none;stroke-dashoffset:0" d="M968.49 238.998h.623c12.096 0 20.533 5.182 25.316 15.543 1.316 3.639 1.975 7.348 1.975 11.125 0 9.703-3.707 17.137-11.123 22.301-4.609 2.911-10.172 4.366-16.688 4.366-12.061 0-20.48-5.095-25.264-15.283-1.422-3.812-2.131-7.606-2.131-11.384 0-10.189 4.123-17.865 12.371-23.029 4.402-2.426 9.376-3.639 14.921-3.639zm-12.267 26.772c0 6.065 2.424 10.362 7.277 12.892 1.664.694 3.291 1.04 4.887 1.04h.832c3.533 0 6.496-1.334 8.889-4.003 2.184-2.668 3.275-5.978 3.275-9.929v-.208c0-6.064-2.34-10.327-7.02-12.788-1.836-.831-3.674-1.247-5.51-1.247-5.961 0-9.963 3.085-12.008 9.253a20.97 20.97 0 0 0-.622 4.99z"/>
  </g>
</svg>
