<?xml version="1.0" encoding="UTF-8" standalone="no"?>
<!-- Generator: Adobe Illustrator 16.0.0, SVG Export Plug-In . SVG Version: 6.00 Build 0)  -->

<svg
   xmlns:osb="http://www.openswatchbook.org/uri/2009/osb"
   xmlns:dc="http://purl.org/dc/elements/1.1/"
   xmlns:cc="http://creativecommons.org/ns#"
   xmlns:rdf="http://www.w3.org/1999/02/22-rdf-syntax-ns#"
   xmlns:svg="http://www.w3.org/2000/svg"
   xmlns="http://www.w3.org/2000/svg"
   xmlns:xlink="http://www.w3.org/1999/xlink"
   xmlns:sodipodi="http://sodipodi.sourceforge.net/DTD/sodipodi-0.dtd"
   xmlns:inkscape="http://www.inkscape.org/namespaces/inkscape"
   version="1.1"
   id="Layer_1"
   x="0px"
   y="0px"
   width="2163.6321"
   height="357.70438"
   viewBox="0 0 2163.6322 357.70438"
   enable-background="new 0 0 1503.927 1531"
   xml:space="preserve"
   inkscape:version="0.91 r13725"
   sodipodi:docname="horizontal.svg"
   inkscape:export-filename="/home/kirill/Projects/PyCharm/ce/polemarch/static/img/logo/horizontal.png"
   inkscape:export-xdpi="90"
   inkscape:export-ydpi="90"><metadata
     id="metadata4988"><rdf:RDF><cc:Work
         rdf:about=""><dc:format>image/svg+xml</dc:format><dc:type
           rdf:resource="http://purl.org/dc/dcmitype/StillImage" /><dc:title></dc:title></cc:Work></rdf:RDF></metadata><defs
     id="defs4986"><linearGradient
       inkscape:collect="always"
       id="linearGradient13395"><stop
         style="stop-color:#000000;stop-opacity:1;"
         offset="0"
         id="stop13397" /><stop
         style="stop-color:#000000;stop-opacity:0;"
         offset="1"
         id="stop13399" /></linearGradient><linearGradient
       id="linearGradient12266"
       osb:paint="solid"><stop
         style="stop-color:#000000;stop-opacity:1;"
         offset="0"
         id="stop12268" /></linearGradient><linearGradient
       id="linearGradient12242"
       osb:paint="solid"><stop
         style="stop-color:#ffffff;stop-opacity:1;"
         offset="0"
         id="stop12244" /></linearGradient><linearGradient
       id="linearGradient12182"
       osb:paint="solid"><stop
         style="stop-color:#000000;stop-opacity:1;"
         offset="0"
         id="stop12184" /></linearGradient><linearGradient
       id="linearGradient12178"
       osb:paint="solid"><stop
         style="stop-color:#ffffff;stop-opacity:1;"
         offset="0"
         id="stop12180" /></linearGradient><linearGradient
       id="linearGradient10662"
       osb:paint="solid"><stop
         style="stop-color:#000000;stop-opacity:1;"
         offset="0"
         id="stop10664" /></linearGradient><linearGradient
       id="linearGradient5548"
       osb:paint="solid"><stop
         style="stop-color:#ffffff;stop-opacity:1;"
         offset="0"
         id="stop5550" /></linearGradient><linearGradient
       inkscape:collect="always"
       xlink:href="#linearGradient13395"
       id="linearGradient13401"
       x1="941.198"
       y1="265.6655"
       x2="996.40399"
       y2="265.6655"
       gradientUnits="userSpaceOnUse" /><linearGradient
       inkscape:collect="always"
       xlink:href="#linearGradient13395"
       id="linearGradient13403"
       x1="1297.132"
       y1="255.06"
       x2="1353.587"
       y2="255.06"
       gradientUnits="userSpaceOnUse" /><linearGradient
       inkscape:collect="always"
       xlink:href="#linearGradient13395"
       id="linearGradient13405"
       x1="1243.176"
       y1="265.7435"
       x2="1293.4969"
       y2="265.7435"
       gradientUnits="userSpaceOnUse" /><linearGradient
       inkscape:collect="always"
       xlink:href="#linearGradient13395"
       id="linearGradient13407"
       x1="1203.356"
       y1="265.50851"
       x2="1239.538"
       y2="265.50851"
       gradientUnits="userSpaceOnUse" /><linearGradient
       inkscape:collect="always"
       xlink:href="#linearGradient13395"
       id="linearGradient13409"
       x1="1150.332"
       y1="265.43149"
       x2="1199.717"
       y2="265.43149"
       gradientUnits="userSpaceOnUse" /><linearGradient
       inkscape:collect="always"
       xlink:href="#linearGradient13395"
       id="linearGradient13411"
       x1="1019.903"
       y1="265.43149"
       x2="1069.286"
       y2="265.43149"
       gradientUnits="userSpaceOnUse" /><linearGradient
       inkscape:collect="always"
       xlink:href="#linearGradient13395"
       id="linearGradient13413"
       x1="1000.045"
       y1="255.0345"
       x2="1016.264"
       y2="255.0345"
       gradientUnits="userSpaceOnUse" /><linearGradient
       inkscape:collect="always"
       xlink:href="#linearGradient13395"
       id="linearGradient13415"
       x1="941.198"
       y1="265.6655"
       x2="996.40399"
       y2="265.6655"
       gradientUnits="userSpaceOnUse" /></defs><sodipodi:namedview
     pagecolor="#000000"
     bordercolor="#666666"
     borderopacity="1"
     objecttolerance="10"
     gridtolerance="10"
     guidetolerance="10"
     inkscape:pageopacity="0"
     inkscape:pageshadow="2"
     inkscape:window-width="1855"
     inkscape:window-height="1056"
     id="namedview4984"
     showgrid="false"
     inkscape:zoom="0.4359953"
     inkscape:cx="1000.9108"
     inkscape:cy="-39.782275"
     inkscape:window-x="1431"
     inkscape:window-y="24"
     inkscape:window-maximized="1"
     inkscape:current-layer="Layer_1"
     fit-margin-top="0"
     fit-margin-left="0"
     fit-margin-right="0"
     fit-margin-bottom="0" /><g
     id="g4899"
     transform="matrix(4.5820833,0,0,4.726008,-4041.1088,-1026.4512)"
     inkscape:export-filename="/home/kirill/Projects/PyCharm/ce/polemarch/static/img/logo/horizontal.png"
     inkscape:export-xdpi="90"
     inkscape:export-ydpi="90"
     clip-path="none"><g
       id="g4901"><!--letter P--><linearGradient
         id="SVGID_7_"
         gradientUnits="userSpaceOnUse"
         x1="881.9375"
         y1="255.11279"
         x2="938.59961"
         y2="255.11279"><stop
           offset="0.0112"
           style="stop-color:#3EB0CA"
           id="stop4904" /><stop
           offset="0.5"
           style="stop-color:#0099B9"
           id="stop4906" /><stop
           offset="0.9944"
           style="stop-color:#007C84"
           id="stop4908" /></linearGradient><path
         d="m 898.156,292.385 -16.219,0 0,-47.565 c 0,-9.219 3.553,-16.531 10.656,-21.938 4.748,-3.36 10.658,-5.042 17.727,-5.042 10.396,0 18.264,3.761 23.602,11.28 3.119,4.679 4.678,10.172 4.678,16.479 0,10.259 -4.141,18.126 -12.424,23.601 -4.678,2.565 -9.912,3.847 -15.699,3.847 l -0.52,0 c -4.436,0 -8.369,-1.073 -11.801,-3.223 l 0,22.561 z M 923.16,245.6 c 0,-5.96 -2.166,-10.326 -6.498,-13.1 -1.941,-1.04 -3.969,-1.56 -6.082,-1.56 l -1.039,0 c -5.061,0 -8.82,2.669 -11.279,8.006 -0.695,2.184 -1.041,4.229 -1.041,6.134 l 0,0.78 c 0,6.064 2.461,10.414 7.383,13.048 2.078,0.797 3.898,1.195 5.457,1.195 6.168,0 10.328,-3.205 12.477,-9.617 0.415,-2.183 0.622,-3.811 0.622,-4.886 z"
         id="path4910"
         style="fill:url(#SVGID_7_);stroke:none"
         inkscape:connector-curvature="0" /><!--letter O--><radialGradient
         id="SVGID_8_"
         cx="968.80182"
         cy="265.6655"
         r="27.139"
         gradientUnits="userSpaceOnUse"><stop
           offset="0"
           stroke="red"
           stroke-width="2"
           style="stop-color:#867278"
           id="stop4913" /><stop
           offset="0.5"
           stroke="red"
           stroke-width="4"
           style="stop-color:#5C4A56"
           id="stop4915" /><stop
           offset="1"
           stroke="red"
           stroke-width="6"
           style="stop-color:#433545"
           id="stop4917" /></radialGradient><path
         d="m 968.49,238.998 0.623,0 c 12.096,0 20.533,5.182 25.316,15.543 1.316,3.639 1.975,7.348 1.975,11.125 0,9.703 -3.707,17.137 -11.123,22.301 -4.609,2.911 -10.172,4.366 -16.688,4.366 -12.061,0 -20.48,-5.095 -25.264,-15.283 -1.422,-3.812 -2.131,-7.606 -2.131,-11.384 0,-10.189 4.123,-17.865 12.371,-23.029 4.402,-2.426 9.376,-3.639 14.921,-3.639 z m -12.267,26.772 c 0,6.065 2.424,10.362 7.277,12.892 1.664,0.694 3.291,1.04 4.887,1.04 l 0.832,0 c 3.533,0 6.496,-1.334 8.889,-4.003 2.184,-2.668 3.275,-5.978 3.275,-9.929 l 0,-0.208 c 0,-6.064 -2.34,-10.327 -7.02,-12.788 -1.836,-0.831 -3.674,-1.247 -5.51,-1.247 -5.961,0 -9.963,3.085 -12.008,9.253 -0.415,1.698 -0.622,3.361 -0.622,4.99 z"
         id="path4919"
         style="opacity:1;fill:#f2f2f2;stroke:url(#linearGradient13415);stroke-width:1.08795249;stroke-miterlimit:4;stroke-dasharray:none;stroke-dashoffset:0"
         inkscape:connector-curvature="0"
         inkscape:export-xdpi="90"
         inkscape:export-ydpi="90"
         inkscape:export-filename="/home/kirill/Projects/PyCharm/ce/polemarch/static/img/logo/horizontal.png" /><!--letter L--><radialGradient
         id="SVGID_9_"
         cx="1008.1543"
         cy="255.0347"
         r="26.990101"
         gradientUnits="userSpaceOnUse"><stop
           offset="0"
           style="stop-color:#867278"
           id="stop4922" /><stop
           offset="0.5"
           style="stop-color:#5C4A56"
           id="stop4924" /><stop
           offset="1"
           style="stop-color:#433545"
           id="stop4926" /></radialGradient><path
         d="m 1000.045,217.736 16.219,0 0,74.493 -16.012,0.104 -0.207,-51.88 0,-22.717 z"
         id="path4928"
         style="opacity:1;fill:#f2f2f2;stroke:url(#linearGradient13413);stroke-width:1.08795249;stroke-miterlimit:4;stroke-dasharray:none;stroke-dashoffset:0"
         inkscape:connector-curvature="0"
         inkscape:export-xdpi="90"
         inkscape:export-ydpi="90"
         inkscape:export-filename="/home/kirill/Projects/PyCharm/ce/polemarch/static/img/logo/horizontal.png" /><!--letter E--><radialGradient
         id="SVGID_10_"
         cx="1044.5938"
         cy="265.43161"
         r="25.82"
         gradientUnits="userSpaceOnUse"><stop
           offset="0"
           style="stop-color:#867278"
           id="stop4931" /><stop
           offset="0.5"
           style="stop-color:#5C4A56"
           id="stop4933" /><stop
           offset="1"
           style="stop-color:#433545"
           id="stop4935" /></radialGradient><path
         d="m 1042.41,292.333 c -10.777,0 -17.744,-3.517 -20.896,-10.553 -1.074,-3.084 -1.611,-6.012 -1.611,-8.785 l 0,-16.011 c 0,-7.347 4.314,-12.874 12.943,-16.583 3.777,-1.247 7.502,-1.871 11.176,-1.871 12.961,0 21.088,4.072 24.381,12.216 0.59,1.906 0.883,3.709 0.883,5.406 l 0,1.508 c 0,6.724 -3.223,11.246 -9.668,13.567 -3.639,1.075 -7.832,1.611 -12.58,1.611 l -12.943,0 c -0.174,0 -0.26,0.087 -0.26,0.261 0,5.129 3.604,7.693 10.813,7.693 l 1.508,0 c 10.777,-0.173 18.09,-1.196 21.936,-3.067 l 0,11.853 c -9.393,1.837 -17.953,2.755 -25.682,2.755 z m 12.945,-35.089 c 0,-3.327 -2.895,-5.336 -8.682,-6.03 l -2.652,0 c -5.025,0 -8.334,1.646 -9.928,4.938 -0.174,0.659 -0.26,1.37 -0.26,2.132 l 0,4.626 12.215,0 c 4.609,0 7.504,-0.952 8.682,-2.858 0.416,-0.797 0.625,-1.733 0.625,-2.808 z"
         id="path4937"
         style="opacity:1;fill:#f2f2f2;stroke:url(#linearGradient13411);stroke-width:1.08795249;stroke-miterlimit:4;stroke-dasharray:none;stroke-dashoffset:0"
         inkscape:connector-curvature="0"
         inkscape:export-xdpi="90"
         inkscape:export-ydpi="90"
         inkscape:export-filename="/home/kirill/Projects/PyCharm/ce/polemarch/static/img/logo/horizontal.png" /><!--letter M--><linearGradient
         id="SVGID_11_"
         gradientUnits="userSpaceOnUse"
         x1="1077.709"
         y1="254.8584"
         x2="1146.6895"
         y2="254.8584"><stop
           offset="0.0112"
           style="stop-color:#3EB0CA"
           id="stop4940" /><stop
           offset="0.5"
           style="stop-color:#0099B9"
           id="stop4942" /><stop
           offset="0.9944"
           style="stop-color:#007C84"
           id="stop4944" /></linearGradient><path
         d="m 1146.689,217.342 0,75.033 -19.619,-0.053 0,-34.959 -15.549,14.87 -14.453,-14.297 -0.053,34.438 -19.307,0 0,-75.033 33.813,28.907 35.168,-28.906 z"
         id="path4946"
         style="fill:url(#SVGID_11_);stroke:none"
         inkscape:connector-curvature="0" /><!--letter A--><radialGradient
         id="SVGID_12_"
         cx="1175.0244"
         cy="265.43161"
         r="25.820499"
         gradientUnits="userSpaceOnUse"><stop
           offset="0"
           style="stop-color:#867278"
           id="stop4949" /><stop
           offset="0.5"
           style="stop-color:#5C4A56"
           id="stop4951" /><stop
           offset="1"
           style="stop-color:#433545"
           id="stop4953" /></radialGradient><path
         d="m 1177.26,238.53 c 10.742,0 17.691,3.518 20.846,10.553 1.074,3.085 1.611,6.013 1.611,8.785 l 0,16.011 c 0,7.348 -4.314,12.875 -12.943,16.583 -3.744,1.247 -7.469,1.871 -11.178,1.871 -12.961,0 -21.088,-4.071 -24.379,-12.216 -0.59,-1.906 -0.885,-3.708 -0.885,-5.406 l 0,-1.508 c 0,-6.723 3.223,-11.245 9.67,-13.567 3.639,-1.074 7.832,-1.611 12.58,-1.611 l 12.943,0 c 0.174,0 0.26,-0.087 0.26,-0.261 0,-5.128 -3.605,-7.693 -10.813,-7.693 l -1.508,0 c -5.926,0 -10.83,0.936 -14.711,2.808 l 0,-11.853 c 4.575,-1.665 10.743,-2.496 18.507,-2.496 z m -12.996,35.089 c 0,3.327 2.895,5.337 8.682,6.03 l 2.65,0 c 5.025,0 8.336,-1.646 9.93,-4.938 0.174,-0.658 0.26,-1.369 0.26,-2.132 l 0,-4.626 -12.217,0 c -4.609,0 -7.484,0.953 -8.629,2.858 -0.452,0.798 -0.676,1.734 -0.676,2.808 z"
         id="path4955"
         style="opacity:1;fill:#f2f2f2;stroke:url(#linearGradient13409);stroke-width:1.08795249;stroke-miterlimit:4;stroke-dasharray:none;stroke-dashoffset:0"
         inkscape:connector-curvature="0"
         inkscape:export-xdpi="90"
         inkscape:export-ydpi="90"
         inkscape:export-filename="/home/kirill/Projects/PyCharm/ce/polemarch/static/img/logo/horizontal.png" /><!--letter R--><radialGradient
         id="SVGID_13_"
         cx="1221.4463"
         cy="265.50931"
         r="22.756001"
         gradientUnits="userSpaceOnUse"><stop
           offset="0"
           style="stop-color:#867278"
           id="stop4958" /><stop
           offset="0.5"
           style="stop-color:#5C4A56"
           id="stop4960" /><stop
           offset="1"
           style="stop-color:#433545"
           id="stop4962" /></radialGradient><path
         d="m 1219.627,242.481 c 3.432,-2.149 7.346,-3.224 11.748,-3.224 l 0.52,0 c 2.529,0 5.076,0.26 7.643,0.779 l 0,14.764 c -2.461,-1.732 -5.131,-2.599 -8.006,-2.599 -1.561,0 -3.379,0.382 -5.459,1.144 -4.887,2.669 -7.33,7.018 -7.33,13.048 l 0,25.731 -15.387,0 c 0.07,-27.412 0.105,-45.121 0.105,-53.127 l 0,-0.104 16.166,0 0,3.588 z"
         id="path4964"
         style="opacity:1;fill:#f2f2f2;stroke:url(#linearGradient13407);stroke-width:1.08795249;stroke-miterlimit:4;stroke-dasharray:none;stroke-dashoffset:0"
         inkscape:connector-curvature="0"
         inkscape:export-xdpi="90"
         inkscape:export-ydpi="90"
         inkscape:export-filename="/home/kirill/Projects/PyCharm/ce/polemarch/static/img/logo/horizontal.png" /><!--letter C--><radialGradient
         id="SVGID_14_"
         cx="1268.3359"
         cy="265.74371"
         r="25.8846"
         gradientUnits="userSpaceOnUse"><stop
           offset="0"
           style="stop-color:#867278"
           id="stop4967" /><stop
           offset="0.5"
           style="stop-color:#5C4A56"
           id="stop4969" /><stop
           offset="1"
           style="stop-color:#433545"
           id="stop4971" /></radialGradient><path
         d="m 1270.414,239.154 0.625,0 c 9.355,0 16.582,3.206 21.676,9.617 -0.068,0 -3.934,2.737 -11.592,8.213 l -0.104,0 c -2.6,-3.569 -6.014,-5.354 -10.24,-5.354 -5.961,0 -9.965,3.085 -12.01,9.253 -0.416,1.698 -0.623,3.362 -0.623,4.99 0,6.03 2.408,10.311 7.227,12.841 1.662,0.658 3.291,0.987 4.885,0.987 l 0.885,0 c 4.643,0 8.143,-2.148 10.5,-6.446 l 0.104,0 11.75,8.474 c -4.992,7.069 -12.65,10.604 -22.977,10.604 -12.061,0 -20.465,-5.076 -25.213,-15.231 -1.422,-3.812 -2.131,-7.606 -2.131,-11.384 0,-10.154 4.123,-17.796 12.371,-22.925 4.367,-2.426 9.322,-3.639 14.867,-3.639 z"
         id="path4973"
         style="opacity:1;fill:#f2f2f2;stroke:url(#linearGradient13405);stroke-width:1.08795249;stroke-miterlimit:4;stroke-dasharray:none;stroke-dashoffset:0"
         inkscape:connector-curvature="0"
         inkscape:export-xdpi="90"
         inkscape:export-ydpi="90"
         inkscape:export-filename="/home/kirill/Projects/PyCharm/ce/polemarch/static/img/logo/horizontal.png" /><!--letter H--><radialGradient
         id="SVGID_15_"
         cx="1325.3604"
         cy="255.061"
         r="33.060501"
         gradientUnits="userSpaceOnUse"><stop
           offset="0"
           style="stop-color:#867278"
           id="stop4976" /><stop
           offset="0.5"
           style="stop-color:#5C4A56"
           id="stop4978" /><stop
           offset="1"
           style="stop-color:#433545"
           id="stop4980" /></radialGradient><path
         d="m 1313.404,242.793 c 3.396,-2.148 7.295,-3.224 11.695,-3.224 l 0.521,0 c 4.885,0 9.32,0.919 13.307,2.756 9.773,4.887 14.66,13.343 14.66,25.368 l 0,24.536 -15.439,0 0,-22.354 c 0,-0.831 0.033,-2.113 0.104,-3.847 l -0.104,0 c 0,-3.604 -1.213,-6.827 -3.639,-9.669 -2.461,-2.599 -5.545,-3.898 -9.254,-3.898 -1.559,0 -3.361,0.398 -5.406,1.195 -4.92,2.635 -7.381,6.966 -7.381,12.996 l 0,25.68 -15.336,0 c 0.07,-27.343 0.105,-52.156 0.105,-74.44 l 0,-0.104 16.166,0 0,25.005 z"
         id="path4982"
         style="opacity:1;fill:#f2f2f2;stroke:url(#linearGradient13403);stroke-width:1.08795249;stroke-miterlimit:4;stroke-dasharray:none;stroke-dashoffset:0"
         inkscape:connector-curvature="0"
         inkscape:export-xdpi="90"
         inkscape:export-ydpi="90"
         inkscape:export-filename="/home/kirill/Projects/PyCharm/ce/polemarch/static/img/logo/horizontal.png" /><path
         inkscape:export-filename="/home/kirill/Projects/PyCharm/ce/polemarch/static/img/logo/horizontal.png"
         inkscape:export-ydpi="90"
         inkscape:export-xdpi="90"
         inkscape:connector-curvature="0"
         style="opacity:1;fill:#f2f2f2;stroke:url(#linearGradient13401);stroke-width:1.08795249;stroke-miterlimit:4;stroke-dasharray:none;stroke-dashoffset:0"
         id="path13027"
         d="m 968.49,238.998 0.623,0 c 12.096,0 20.533,5.182 25.316,15.543 1.316,3.639 1.975,7.348 1.975,11.125 0,9.703 -3.707,17.137 -11.123,22.301 -4.609,2.911 -10.172,4.366 -16.688,4.366 -12.061,0 -20.48,-5.095 -25.264,-15.283 -1.422,-3.812 -2.131,-7.606 -2.131,-11.384 0,-10.189 4.123,-17.865 12.371,-23.029 4.402,-2.426 9.376,-3.639 14.921,-3.639 z m -12.267,26.772 c 0,6.065 2.424,10.362 7.277,12.892 1.664,0.694 3.291,1.04 4.887,1.04 l 0.832,0 c 3.533,0 6.496,-1.334 8.889,-4.003 2.184,-2.668 3.275,-5.978 3.275,-9.929 l 0,-0.208 c 0,-6.064 -2.34,-10.327 -7.02,-12.788 -1.836,-0.831 -3.674,-1.247 -5.51,-1.247 -5.961,0 -9.963,3.085 -12.008,9.253 -0.415,1.698 -0.622,3.361 -0.622,4.99 z" /></g></g></svg>